<svg width="40" height="40" viewBox="0 0 40 40" fill="none" xmlns="http://www.w3.org/2000/svg">
<g clip-path="url(#clip0_625_216)">
<path d="M19.9993 10.8333C26.316 10.8333 31.9493 14.3833 34.6993 20C31.9493 25.6167 26.3327 29.1667 19.9993 29.1667C13.666 29.1667 8.04935 25.6167 5.29935 20C8.04935 14.3833 13.6827 10.8333 19.9993 10.8333ZM19.9993 7.5C11.666 7.5 4.54935 12.6833 1.66602 20C4.54935 27.3167 11.666 32.5 19.9993 32.5C28.3327 32.5 35.4493 27.3167 38.3327 20C35.4493 12.6833 28.3327 7.5 19.9993 7.5ZM19.9993 15.8333C22.2993 15.8333 24.166 17.7 24.166 20C24.166 22.3 22.2993 24.1667 19.9993 24.1667C17.6993 24.1667 15.8327 22.3 15.8327 20C15.8327 17.7 17.6993 15.8333 19.9993 15.8333ZM19.9993 12.5C15.866 12.5 12.4993 15.8667 12.4993 20C12.4993 24.1333 15.866 27.5 19.9993 27.5C24.1327 27.5 27.4993 24.1333 27.4993 20C27.4993 15.8667 24.1327 12.5 19.9993 12.5Z" fill="#1A1A1A"/>
</g>
<defs>
<clipPath id="clip0_625_216">
<rect width="40" height="40" fill="white"/>
</clipPath>
</defs>
</svg>
